#!OML:ASF F:\VICON\USERDATA\INSTALL\rory3\rory3.ASF
:FULLY-SPECIFIED
:DEGREES
360
root 4.3445 16.901 0.223012 11.831 -0.890808 -1.2035
lowerback 3.17013 -2.47361 5.66151
upperback -0.509498 -3.08461 -0.53838
thorax -2.6346 -1.62588 -3.55277
lowerneck -10.853 2.73514 -0.207546
upperneck 48.62 5.25706 -1.80273
head 21.9382 1.64394 0.108784
rclavicle -1.54555e-014 -4.17448e-015
rhumerus -17.213 12.1103 -53.8198
rradius 110.801
rwrist -53.6018
rhand -0.108076 -38.1464
rfingers 7.12502
rthumb 25.4869 -66.462
lclavicle -1.54555e-014 -4.17448e-015
lhumerus 23.703 2.57737 39.6205
lradius 93.3041
lwrist 56.9619
lhand -24.2729 -21.5737
lfingers 7.12502
lthumb 2.21376 8.39453
rfemur -54.3648 7.11891 17.5542
rtibia 73.9634
rfoot 10.3206 -2.52645
rtoes -20.3122
lfemur -30.5744 1.56455 -29.252
ltibia 40.5409
lfoot -19.5209 12.3301
ltoes 7.76913
361
root 4.33798 16.9029 0.219293 11.9198 -0.859187 -1.31973
lowerback 3.19077 -2.48901 5.74758
upperback -0.528496 -3.09999 -0.542298
thorax -2.67255 -1.63631 -3.60255
lowerneck -10.2049 2.79671 -0.511415
upperneck 48.5045 5.25641 -1.46274
head 21.4326 1.64616 0.315011
rclavicle -1.23743e-014 1.74931e-014
rhumerus -17.605 12.6383 -54.4751
rradius 110.739
rwrist -53.46
rhand -0.0701433 -40.9546
rfingers 7.12502
rthumb 25.5232 -69.265
lclavicle -1.23743e-014 1.74931e-014
lhumerus 23.3719 2.31294 40.2986
lradius 93.3477
lwrist 56.737
lhand -24.0198 -21.1612
lfingers 7.12502
lthumb 2.45823 8.80436
rfemur -54.5615 7.09308 17.8136
rtibia 74.0813
rfoot 10.6426 -2.72922
rtoes -19.979
lfemur -30.7209 1.75454 -29.1008
ltibia 40.5587
lfoot -19.611 11.9302
ltoes 8.16275
362
root 4.33758 16.9084 0.223339 11.9893 -0.766484 -1.27781
lowerback 3.09901 -2.49162 5.82512
upperback -0.547572 -3.10809 -0.630989
thorax -2.65098 -1.64233 -3.74079
lowerneck -9.95723 2.84494 -0.598186
upperneck 48.4491 5.26481 -1.27231
head 21.2905 1.6627 0.426733
rclavicle 6.05796e-014 -2.5842e-015
rhumerus -18.1556 13.0247 -55.1617
rradius 110.665
rwrist -53.3328
rhand 0.13477 -40.2468
rfingers 7.12502
rthumb 25.7195 -68.5289
lclavicle 6.05796e-014 -2.5842e-015
lhumerus 23.0139 1.92055 40.888
lradius 93.337
lwrist 56.5962
lhand -24.2399 -21.9883
lfingers 7.12502
lthumb 2.24563 7.97964
rfemur -54.6836 6.89143 17.8643
rtibia 74.1975
rfoot 10.7895 -2.94732
rtoes -19.3471
lfemur -30.7298 1.87769 -29.1446
ltibia 40.5237
lfoot -19.7225 11.5355
ltoes 8.61309
363
root 4.33675 16.9129 0.224766 11.9964 -0.680993 -1.01025
lowerback 3.14911 -2.49965 5.66212
upperback -0.591261 -3.12491 -0.775531
thorax -2.72546 -1.65271 -3.79488
lowerneck -9.57911 2.89804 -0.587093
upperneck 48.3341 5.33702 -1.27734
head 21.0809 1.7019 0.426294
rclavicle -1.37161e-014 8.54774e-015
rhumerus -18.6891 13.4258 -55.799
rradius 110.515
rwrist -53.1134
rhand 0.500396 -40.0902
rfingers 7.12502
rthumb 26.0696 -68.3212
lclavicle -1.37161e-014 8.54774e-015
lhumerus 22.619 1.41192 41.332
lradius 93.1956
lwrist 56.6182
lhand -24.378 -23.0554
lfingers 7.12502
lthumb 2.11229 6.9139
rfemur -54.7591 6.60822 17.6687
rtibia 74.3418
rfoot 10.9319 -3.06539
rtoes -19.0803
lfemur -30.6966 2.05598 -29.4517
ltibia 40.4996
lfoot -19.8012 11.1635
ltoes 8.52472
364
root 4.33062 16.9136 0.218069 12.0012 -0.612929 -0.879732
lowerback 3.26448 -2.49601 5.54336
upperback -0.60865 -3.11987 -0.862504
thorax -2.80619 -1.65171 -3.8134
lowerneck -9.22059 2.9868 -0.485315
upperneck 48.2696 5.49588 -1.39348
head 20.9331 1.77588 0.368579
rclavicle 2.41523e-014 -2.34566e-014
rhumerus -19.075 13.8365 -56.3877
rradius 110.374
rwrist -52.826
rhand 0.768739 -40.1793
rfingers 7.12502
rthumb 26.3265 -68.3722
lclavicle 2.41523e-014 -2.34566e-014
lhumerus 22.3067 0.992077 41.9983
lradius 93.023
lwrist 56.5109
lhand -24.2062 -23.6332
lfingers 7.12502
lthumb 2.27818 6.33441
rfemur -54.9008 6.43583 17.6514
rtibia 74.4897
rfoot 11.1545 -3.06586
rtoes -19.0398
lfemur -30.7746 2.275 -29.5916
ltibia 40.5422
lfoot -19.821 10.8418
ltoes 8.25803
365
root 4.31998 16.9085 0.205548 12.0234 -0.502061 -0.92333
lowerback 3.38305 -2.47647 5.56839
upperback -0.569583 -3.0873 -0.894593
thorax -2.83207 -1.63588 -3.85893
lowerneck -9.14214 3.05494 -0.316072
upperneck 48.3312 5.62335 -1.51825
head 20.9758 1.84175 0.295976
rclavicle -5.08392e-014 -1.47101e-014
rhumerus -19.4726 14.1232 -56.9074
rradius 110.31
rwrist -52.5869
rhand 0.794177 -40.129
rfingers 7.12502
rthumb 26.3508 -68.3183
lclavicle -5.08392e-014 -1.47101e-014
lhumerus 22.0252 0.646723 42.7436
lradius 93.0188
lwrist 56.4727
lhand -23.9767 -23.6799
lfingers 7.12502
lthumb 2.49988 6.28524
rfemur -55.1007 6.33543 17.8394
rtibia 74.6319
rfoot 11.4521 -3.19527
rtoes -18.7949
lfemur -30.9448 2.38117 -29.5104
ltibia 40.6611
lfoot -19.7471 10.6297
ltoes 8.38603
366
root 4.30501 16.9025 0.193199 12.0114 -0.471598 -1.10344
lowerback 3.59631 -2.42278 5.63791
upperback -0.518204 -3.00002 -0.869459
thorax -2.89155 -1.59344 -3.87045
lowerneck -9.35241 3.07767 -0.338984
upperneck 48.5604 5.62526 -1.36872
head 21.2101 1.84835 0.385682
rclavicle -2.25124e-014 3.97569e-015
rhumerus -19.8715 14.3518 -57.404
rradius 110.299
rwrist -52.5411
rhand 0.628956 -40.8095
rfingers 7.12502
rthumb 26.1927 -69.0223
lclavicle -2.25124e-014 3.97569e-015
lhumerus 21.5834 0.256299 43.3303
lradius 92.9797
lwrist 56.4885
lhand -23.4936 -24.4286
lfingers 7.12502
lthumb 2.96644 5.53048
rfemur -55.2692 6.43056 18.1657
rtibia 74.7271
rfoot 11.8216 -3.55527
rtoes -18.3808
lfemur -31.1352 2.4883 -29.2609
ltibia 40.8624
lfoot -19.7202 10.5365
ltoes 8.47957
367
root 4.29303 16.9025 0.189756 11.9444 -0.486733 -1.21434
lowerback 3.77246 -2.34974 5.6614
upperback -0.482485 -2.89154 -0.871801
thorax -2.94294 -1.54018 -3.88784
lowerneck -9.42981 3.09573 -0.449187
upperneck 48.7397 5.58133 -1.09698
head 21.3505 1.83997 0.544146
rclavicle -1.98785e-015 8.34896e-015
rhumerus -20.2937 14.6632 -57.9458
rradius 110.264
rwrist -52.5821
rhand 1.12216 -41.9383
rfingers 7.12502
rthumb 26.6648 -70.0802
lclavicle -1.98785e-015 8.34896e-015
lhumerus 21.0063 -0.2851 43.8545
lradius 92.8143
lwrist 56.4086
lhand -22.9234 -25.8988
lfingers 7.12502
lthumb 3.51704 4.05198
rfemur -55.3125 6.52342 18.4063
rtibia 74.7856
rfoot 12.0587 -3.85399
rtoes -18.2621
lfemur -31.2337 2.56979 -29.0878
ltibia 41.0618
lfoot -19.8071 10.505
ltoes 8.48132
368
root 4.28502 16.8993 0.187136 11.9052 -0.348762 -1.29362
lowerback 3.87831 -2.36678 5.74064
upperback -0.333919 -2.90662 -0.853141
thorax -2.85313 -1.54265 -3.91116
lowerneck -9.74695 3.17103 -0.527274
upperneck 48.7789 5.73085 -1.05372
head 21.4789 1.8827 0.61989
rclavicle 4.35338e-014 -1.59028e-015
rhumerus -20.3859 15.0469 -58.4106
rradius 110.076
rwrist -52.5346
rhand 0.394794 -39.4423
rfingers 7.12502
rthumb 25.9685 -67.6881
lclavicle 4.35338e-014 -1.59028e-015
lhumerus 20.711 -0.49492 44.5402
lradius 92.7053
lwrist 56.3059
lhand -22.6303 -26.5857
lfingers 7.12502
lthumb 3.8001 3.36018
rfemur -55.3686 6.41655 18.6211
rtibia 74.8888
rfoot 12.2553 -4.10117
rtoes -18.1681
lfemur -31.2964 2.49497 -28.945
ltibia 41.1804
lfoot -19.8984 10.4526
ltoes 8.95403
369
root 4.28158 16.892 0.184526 11.9529 -0.100641 -1.29664
lowerback 3.91206 -2.51158 5.80459
upperback -0.000283829 -3.10054 -0.801479
thorax -2.54836 -1.62317 -3.88592
lowerneck -11.1728 3.33599 -0.57114
upperneck 48.8931 6.16665 -1.19534
head 22.2471 1.98354 0.706794
rclavicle -9.24349e-015 -1.66979e-014
rhumerus -19.857 15.4183 -58.7689
rradius 109.853
rwrist -52.5517
rhand 0.504058 -40.0639
rfingers 7.12502
rthumb 26.0731 -68.2944
lclavicle -9.24349e-015 -1.66979e-014
lhumerus 20.7799 -0.0918507 45.3158
lradius 92.6372
lwrist 56.1414
lhand -22.554 -26.5108
lfingers 7.12502
lthumb 3.87377 3.43373
rfemur -55.5225 6.15263 18.7323
rtibia 75.0458
rfoot 12.4388 -4.43467
rtoes -17.6064
lfemur -31.3542 2.31485 -28.9093
ltibia 41.2027
lfoot -19.9278 10.3756
ltoes 9.5942
370
root 4.2857 16.8881 0.185428 12.015 0.165945 -0.989925
lowerback 2.34956 -2.55814 5.59993
upperback 1.14963 -3.29461 -0.906954
thorax -0.5004 -1.63523 -3.97104
lowerneck -12.1072 3.44725 -0.405275
upperneck 48.3608 6.4368 -1.49359
head 22.1703 2.07911 0.595007
rclavicle -2.45499e-014 -7.95139e-015
rhumerus -18.3685 15.0461 -58.9371
rradius 109.495
rwrist -52.551
rhand 0.537301 -40.5708
rfingers 7.12502
rthumb 26.1049 -68.7966
lclavicle -2.45499e-014 -7.95139e-015
lhumerus 21.8529 0.831411 46.0792
lradius 92.5288
lwrist 55.791
lhand -22.4284 -25.5444
lfingers 7.12502
lthumb 3.99508 4.39794
rfemur -55.662 5.6963 18.4757
rtibia 75.2468
rfoot 12.5001 -4.6212
rtoes -16.8261
lfemur -31.3098 2.07917 -29.2513
ltibia 41.1534
lfoot -19.9148 10.3087
ltoes 9.45034
